<?xml version="1.0" encoding="UTF-8" standalone="no"?>
<svg
   width="48"
   height="48"
   viewBox="0 0 48 48"
   version="1.1"
   id="svg1"
   xmlns="http://www.w3.org/2000/svg"
   xmlns:svg="http://www.w3.org/2000/svg"
   xmlns:dc="http://purl.org/dc/elements/1.1/">
  <defs
     id="defs1" />
  <metadata
     id="metadata1">
    <dc:creator>Asaad Ali</dc:creator>
    <dc:title>Logo</dc:title>
    <dc:description>Personal website logo</dc:description>
  </metadata>
  <g
     id="logo"
     style="display:inline;fill:#dc6e0a;fill-opacity:1;stroke:none;stroke-opacity:1"
     transform="matrix(3.6666667,0,0,3.1428571,-5.3333334,-1.1428571)">
    <path
       style="display:inline;fill:#dc6e0a;fill-opacity:1;stroke:none;stroke-opacity:1"
       d="m 8.0000008,9 c 1.3333323,0.6666667 1.3333323,1.333333 0,2 -1.5954676,-0.04899 -2.8257101,1.827983 -4.0000011,4 L 1.9999992,13 C 3.9923357,10.338448 5.9923357,9.0051147 8.0000008,9 Z"
       id="left-arch" />
    <path
       style="display:inline;fill:#000000;fill-opacity:0.402564;stroke:none;stroke-opacity:1"
       d="m 16.59567,28.570392 c -0.05038,-0.01372 0.314155,-0.101433 0.504393,-0.187055 l -6.408128,15.511718 c 0.04914,-0.09937 -0.648613,1.001256 -1.3586016,2.104944 z"
       id="left-shadow"
       transform="matrix(0.27272727,0,0,0.31818182,1.4545455,0.36363635)" />
    <path
       style="display:inline;fill:#dc6e0a;fill-opacity:1;stroke:none;stroke-opacity:1"
       d="M 2,13 4,15 9,1 H 7 Z"
       id="left-strip" />
    <path
       style="display:inline;fill:#000000;fill-opacity:0.402564;stroke:none;stroke-width:0.294579;stroke-opacity:1"
       d="M 6.9999999,0.99999999 8,3.8 7.9439797,3.9568569 6.9389942,1.1464138 Z"
       id="top-shadow" />
    <path
       style="display:inline;opacity:1;mix-blend-mode:normal;fill:#dc6e0a;fill-opacity:1;stroke:none;stroke-opacity:1"
       d="M 14,13 12,15 7,1 h 2 z"
       id="right-strip" />
    <path
       style="display:inline;fill:#000000;fill-opacity:0.402564;stroke:none;stroke-width:0.294579;stroke-opacity:1"
       d="M 10.019672,9.4543573 C 11.294117,10.035404 12.614397,11.142702 14,13 L 13.899655,12.759171 C 12.863326,11.290269 11.358354,9.8406679 9.9741397,9.3275912 Z"
       id="right-shadow" />
    <path
       style="display:inline;fill:#dc6e0a;fill-opacity:1;stroke:none;stroke-opacity:1"
       d="m 7.9999996,9 c -1.3333328,0.6666667 -1.3333328,1.333333 -10e-8,2 C 9.595467,10.951015 10.825709,12.827983 12,15 l 2,-2 C 12.007664,10.338448 10.007665,9.0051147 7.9999996,9 Z"
       id="right-arch" />
  </g>
</svg>
